<?xml version="1.0"?>
<svg width="39" height="11" xmlns="http://www.w3.org/2000/svg" xmlns:svg="http://www.w3.org/2000/svg">
 <g class="layer">
  <title>Layer 1</title>
  <path d="m36.969002,5.944l-36.470002,0a0.493,0.493 0 0 1 -0.499,-0.487c0,-0.269 0.224,-0.486 0.5,-0.486l36.317001,0l-5.958002,-4.063a0.48,0.48 0 0 1 -0.182999,-0.665a0.507,0.507 0 0 1 0.682999,-0.178l7.391001,4.868a0.483,0.483 0 0 1 0.242001,0.509a0.524,0.524 0 0 1 -0.006001,0.09a0.482,0.482 0 0 1 -0.236,0.535l-7.389999,4.868001a0.507,0.507 0 0 1 -0.684,-0.178a0.48,0.48 0 0 1 0.182999,-0.665l6.110003,-4.148z" fill="#e43899" fill-rule="nonzero" id="svg_1"/>
 </g>
</svg>